Coordinates
version=1
nRows=60
nColumns=12
inDegrees=yes

Units are S.I. units (second, meters, Newtons, ...)
Angles are in degrees

endheader
time	SC_y	SC_z	SC_x	AC_y	AC_z	AC_x	GH_y	GH_z	GH_yy	EL_x	PS_y
       0.0              -21.23          27.34           47.3          54.82          0.949         -12.96         -125.3         -14.23           51.7          113.5          145.0
   0.03626              -21.23          27.34           47.3          54.82         0.9466         -12.96         -125.2         -14.21          51.67          113.4          145.0
   0.07252              -21.23          27.34           47.3          54.82         0.9441         -12.96         -125.2          -14.2          51.65          113.4          145.0
    0.1088              -21.22          27.34          47.29          54.82         0.9415         -12.96         -125.1         -14.19          51.62          113.4          145.0
     0.145              -21.22          27.35          47.29          54.83         0.9387         -12.96         -125.1         -14.17          51.59          113.4          144.9
    0.1813              -21.22          27.35          47.29          54.83         0.9356         -12.96         -125.0         -14.16          51.56          113.4          144.9
    0.2176              -21.22          27.35          47.29          54.83         0.9324         -12.97         -125.0         -14.14          51.53          113.4          144.9
    0.2538              -21.22          27.35          47.28          54.84          0.929         -12.97         -124.9         -14.12           51.5          113.4          144.9
    0.2901              -21.22          27.36          47.28          54.84         0.9253         -12.97         -124.8          -14.1          51.46          113.4          144.9
    0.3263              -21.22          27.36          47.27          54.84         0.9213         -12.97         -124.8         -14.08          51.42          113.4          144.9
    0.3626              -21.21          27.36          47.27          54.85         0.9171         -12.97         -124.7         -14.06          51.38          113.4          144.9
    0.3988              -21.21          27.36          47.27          54.85         0.9125         -12.97         -124.6         -14.04          51.33          113.4          144.9
    0.4351              -21.21          27.37          47.26          54.85         0.9076         -12.97         -124.5         -14.01          51.28          113.4          144.8
    0.4714              -21.21          27.37          47.26          54.86         0.9023         -12.97         -124.4         -13.99          51.23          113.4          144.8
    0.5076              -21.21          27.37          47.25          54.86         0.8965         -12.97         -124.3         -13.96          51.17          113.4          144.8
    0.5439               -21.2          27.38          47.25          54.87         0.8903         -12.98         -124.2         -13.92          51.11          113.4          144.8
    0.5801               -21.2          27.38          47.24          54.88         0.8835         -12.98         -124.1         -13.89          51.04          113.4          144.8
    0.6164               -21.2          27.39          47.23          54.88         0.8761         -12.98         -124.0         -13.85          50.97          113.4          144.7
    0.6527              -21.19          27.39          47.22          54.89          0.868         -12.98         -123.8         -13.81          50.88          113.4          144.7
    0.6889              -21.19           27.4          47.22           54.9         0.8591         -12.98         -123.7         -13.76           50.8          113.4          144.7
    0.7252              -21.19          27.41          47.21           54.9         0.8494         -12.98         -123.5         -13.71           50.7          113.4          144.6
    0.7614              -21.18          27.41           47.2          54.91         0.8387         -12.99         -123.3         -13.66          50.59          113.4          144.6
    0.7977              -21.18          27.42          47.19          54.92         0.8269         -12.99         -123.1          -13.6          50.47          113.4          144.6
    0.8339              -21.17          27.43          47.17          54.94         0.8139         -12.99         -122.9         -13.53          50.34          113.3          144.5
    0.8702              -21.17          27.44          47.16          54.95         0.7993          -13.0         -122.6         -13.46           50.2          113.3          144.5
    0.9065              -21.16          27.45          47.15          54.96         0.7831          -13.0         -122.3         -13.37          50.03          113.3          144.4
    0.9427              -21.15          27.46          47.13          54.98         0.7649          -13.0         -122.0         -13.28          49.85          113.3          144.3
     0.979              -21.15          27.47          47.11           55.0         0.7445         -13.01         -121.7         -13.18          49.65          113.3          144.3
     1.015              -21.14          27.49          47.09          55.02         0.7214         -13.01         -121.3         -13.06          49.41          113.3          144.2
     1.052              -21.13          27.51          47.06          55.04         0.6951         -13.02         -120.8         -12.92          49.15          113.3          144.1
     1.088              -21.11          27.53          47.04          55.07         0.6652         -13.03         -120.3         -12.77          48.85          113.2          144.0
     1.124               -21.1          27.55           47.0           55.1         0.6308         -13.04         -119.7         -12.59           48.5          113.2          143.9
      1.16              -21.08          27.58          46.97          55.13         0.5912         -13.04         -119.0         -12.39          48.11          113.2          143.8
     1.197              -21.06          27.61          46.92          55.17         0.5451         -13.06         -118.2         -12.15          47.64          113.1          143.6
     1.233              -21.04          27.64          46.87          55.22         0.4912         -13.07         -117.2         -11.87           47.1          113.1          143.4
     1.269              -21.02          27.68          46.81          55.27         0.4276         -13.08         -116.1         -11.55          46.46          113.0          143.2
     1.305              -20.99          27.73          46.74          55.34          0.352          -13.1         -114.8         -11.16          45.71          113.0          142.9
     1.342              -20.95          27.79          46.66          55.42         0.2615         -13.12         -113.2         -10.69           44.8          112.9          142.6
     1.378              -20.91          27.87          46.56          55.52         0.1519         -13.15         -111.2         -10.13           43.7          112.8          142.3
     1.414              -20.85          27.95          46.43          55.63        0.01805         -13.18         -108.9         -9.445          42.36          112.7          141.8
      1.45              -20.79          28.06          46.28          55.78        -0.1471         -13.22         -106.0         -8.596           40.7          112.6          141.2
     1.487               -20.7           28.2          46.09          55.96        -0.3531         -13.26         -102.4         -7.538          38.63          112.4          140.5
     1.523               -20.6          28.37          45.84          56.18        -0.6126         -13.32         -97.79         -6.205          36.03          112.2          139.6
     1.559              -20.46          28.59          45.54          56.47        -0.9425          -13.4         -91.99         -4.511          32.72          112.0          138.5
     1.595              -20.29          28.87          45.14          56.84         -1.365          -13.5         -84.57         -2.343          28.48          111.6          137.1
     1.632              -20.07          29.22          44.64          57.32         -1.907         -13.63         -75.04         0.4405          23.04          111.2          135.2
     1.668               -19.8          29.68          43.99          57.92         -2.599         -13.79         -62.87          3.995          16.09          110.7          132.9
     1.704              -19.44          30.26          43.18          58.69         -3.469         -13.99         -47.57          8.465          7.361          110.0          129.9
      1.74              -19.02          30.95          42.19          59.61         -4.529         -14.23         -28.92          13.91         -3.281          109.1          126.3
     1.777              -18.52          31.77          41.04          60.69         -5.759         -14.52         -7.299          20.23         -15.62          108.2          122.1
     1.813              -17.98          32.64           39.8          61.86          -7.09         -14.83          16.11          27.06         -28.98          107.1          117.5
     1.849              -17.44          33.52          38.56          63.02         -8.421         -15.14          39.51           33.9         -42.33          106.1          113.0
     1.885              -16.95          34.33          37.41           64.1          -9.65         -15.43          61.13          40.21         -54.67          105.1          108.8
     1.922              -16.52          35.03          36.42          65.03         -10.71         -15.67          79.78          45.66         -65.31          104.3          105.2
     1.958              -16.17          35.61          35.61          65.79         -11.58         -15.87          95.09          50.13         -74.05          103.6          102.2
     1.994              -15.89          36.06          34.97          66.39         -12.27         -16.03          107.3          53.68         -80.99          103.0          99.84
      2.03              -15.67          36.42          34.46          66.87         -12.81         -16.16          116.8          56.47         -86.43          102.6          97.99
     2.067               -15.5           36.7          34.07          67.24         -13.24         -16.26          124.2          58.64         -90.67          102.3          96.55
     2.103              -15.37          36.92          33.76          67.53         -13.57         -16.34          130.0          60.33         -93.98          102.0          95.42
     2.139              -15.26          37.09          33.52          67.75         -13.83          -16.4          134.6          61.66         -96.58          101.8          94.54
